<svg xmlns="http://www.w3.org/2000/svg" viewBox="0 0 100 100">
  <defs>
    <linearGradient id="grad1" x1="0%" y1="0%" x2="100%" y2="100%">
      <stop offset="0%" style="stop-color:#2563eb;stop-opacity:1" />
      <stop offset="50%" style="stop-color:#7c3aed;stop-opacity:1" />
      <stop offset="100%" style="stop-color:#06b6d4;stop-opacity:1" />
    </linearGradient>
  </defs>
  
  <!-- Background Circle -->
  <circle cx="50" cy="50" r="48" fill="url(#grad1)"/>
  
  <!-- L Letter -->
  <path d="M 25 25 L 25 60 L 45 60 L 45 55 L 30 55 L 30 25 Z" fill="white" stroke="white" stroke-width="1"/>
  
  <!-- R Letter -->
  <path d="M 50 25 L 50 60 L 55 60 L 55 45 L 65 45 C 68 45 70 43 70 40 L 70 30 C 70 27 68 25 65 25 Z M 55 30 L 63 30 C 64 30 65 31 65 32 L 65 38 C 65 39 64 40 63 40 L 55 40 Z" fill="white" stroke="white" stroke-width="1"/>
  <path d="M 60 45 L 70 60 L 66 60 L 56 45 Z" fill="white" stroke="white" stroke-width="1"/>
</svg>
